<?xml version="1.0" encoding="UTF-8" standalone="no"?>
<!-- Created with Inkscape (http://www.inkscape.org/) -->

<svg
   version="1.1"
   id="svg1"
   width="856"
   height="130"
   viewBox="0 0 856 130"
   sodipodi:docname="darulshifa general hospital logo copy.svg"
   inkscape:version="1.4.2 (f4327f4, 2025-05-13)"
   xmlns:inkscape="http://www.inkscape.org/namespaces/inkscape"
   xmlns:sodipodi="http://sodipodi.sourceforge.net/DTD/sodipodi-0.dtd"
   xmlns="http://www.w3.org/2000/svg"
   xmlns:svg="http://www.w3.org/2000/svg">
  <defs
     id="defs1" />
  <sodipodi:namedview
     id="namedview1"
     pagecolor="#ffffff"
     bordercolor="#000000"
     borderopacity="0.25"
     inkscape:showpageshadow="2"
     inkscape:pageopacity="0.0"
     inkscape:pagecheckerboard="0"
     inkscape:deskcolor="#d1d1d1"
     showgrid="false"
     inkscape:zoom="0.94275701"
     inkscape:cx="428"
     inkscape:cy="65.234201"
     inkscape:window-width="1280"
     inkscape:window-height="961"
     inkscape:window-x="-8"
     inkscape:window-y="-8"
     inkscape:window-maximized="1"
     inkscape:current-layer="g1" />
  <g
     inkscape:groupmode="layer"
     inkscape:label="Image"
     id="g1">
    <path
       style="fill:#000000;stroke-width:1.09166"
       d="m 143.13569,132.27909 c -3.3,-0.20514 -33,-0.94512 -66.000002,-1.6444 C 6.5333667,129.1386 1.6356878,128.8158 1.6356878,125.65863 c 0,-2.08536 0.711849,-2.18981 10.7500002,-1.57734 39.540553,2.41252 128.523002,3.41826 308.250002,3.48403 110.275,0.0404 217.03614,-0.0737 237.24698,-0.25337 l 36.74698,-0.32675 -2.73328,-6.22769 c -3.56122,-8.11411 -3.64995,-17.25799 -0.23768,-24.493277 1.28991,-2.735076 2.72654,-4.972863 3.19253,-4.972863 1.81007,0 1.72659,3.206478 -0.20078,7.711676 -2.62881,6.144784 -2.61695,14.335044 0.0282,19.505554 1.18196,2.31037 1.78112,4.93388 1.42887,6.25651 -0.58291,2.1887 0.14647,2.27773 18.66076,2.27773 14.98575,0 19.00072,-0.31779 18.06739,-1.43005 -2.34345,-2.79273 -1.39332,-5.54701 2.05,-5.94266 2.65525,-0.30511 3.28379,-0.91865 3.43464,-3.35273 0.10665,-1.72075 -0.0299,-2.09831 -0.32332,-0.89379 -0.29941,1.22927 -1.481,2.08551 -2.87794,2.08551 -5.54873,0 -7.62828,-12.11696 -2.84852,-16.59753 3.2964,-3.090058 4.43388,-3.090058 7.73028,0 2.42665,2.27475 2.63486,3.17387 2.63486,11.37821 0,8.10248 -0.23934,9.17261 -2.64602,11.83066 l -2.646,2.92238 h 12.21341 c 11.56943,0 12.18143,-0.1201 11.60679,-2.27773 -0.35225,-1.32263 0.24691,-3.94614 1.42887,-6.25651 2.81173,-5.49605 2.77202,-15.40056 -0.0838,-20.907298 -1.63427,-3.151242 -1.85335,-4.425745 -0.94601,-5.503379 2.50143,-2.97091 7.05537,8.089867 7.06723,17.165137 0.003,2.34684 -1.11754,6.90515 -2.49023,10.12959 -1.3727,3.22444 -2.4977,6.30466 -2.5,6.84493 -0.004,0.96897 97.13846,0.0449 149.33248,-1.42054 19.82727,-0.55669 27.08791,-0.39212 27.79856,0.63006 0.63545,0.91401 0.52119,1.70841 -0.33667,2.34076 -2.25818,1.66457 -49.79506,2.599 -168.79856,3.31806 -140.37282,0.84818 -520.1658,1.69124 -528.5,1.17317 z m 494.6454,-26.99054 c -1.51951,-1.81083 -4.1454,-0.10821 -4.1454,2.68784 0,1.45859 0.91551,2.86744 2.25,3.46245 1.92254,0.85721 2.29776,0.57033 2.57818,-1.97116 0.1805,-1.63589 -0.12676,-3.51651 -0.68278,-4.17913 z m -113.1454,9.83714 c 0,-11.91435 1.51636,-15.49231 6.56574,-15.49231 6.01308,0 9.33998,5.63158 7.42082,12.56154 -1.63165,5.8918 -8.98656,8.69639 -8.98656,3.42679 0,-0.9607 1.125,-2.25646 2.5,-2.87946 2.70598,-1.22604 3.33922,-4.83672 1.21646,-6.9362 -2.75686,-2.72663 -4.18526,0.54807 -4.56301,10.46101 -0.3223,8.45781 -0.5878,9.58407 -2.25934,9.58407 -1.71851,0 -1.89411,-0.99433 -1.89411,-10.72544 z m 160,4.62095 c 0,-4.49963 -0.14718,-4.77696 -1.75,-3.29777 -1.42464,1.31477 -1.39583,1.12033 0.15499,-1.04579 2.84469,-3.97337 3.59501,-3.28509 3.59501,3.29775 0,3.27722 -0.45,5.95858 -1,5.95858 -0.55,0 -1,-2.21075 -1,-4.91277 z m 7.07636,3.80251 c -0.9918,-0.74805 -0.41746,-1.01363 1.89344,-0.87553 1.88588,0.11274 3.50689,-0.44451 3.75698,-1.29143 0.25695,-0.87015 -0.39248,-1.48964 -1.56166,-1.48964 -3.27236,0 -5.16512,-1.31011 -5.16512,-3.57515 0,-3.68659 4.83401,-4.79444 7.42857,-1.70245 4.22334,5.03301 -1.27377,12.76454 -6.35221,8.9342 z m 5.67393,-6.93319 c 0.54676,-1.95695 -2.58648,-3.35389 -3.93038,-1.75234 -0.5751,0.68535 -0.7279,1.8588 -0.33954,2.60765 0.88355,1.70369 3.71332,1.13686 4.26992,-0.85531 z m 4.78594,6.92159 c -0.32,-0.61703 0.6168,-1.01923 2.08177,-0.89378 1.46496,0.12544 2.86272,-0.44227 3.10612,-1.26158 0.27659,-0.93104 -0.48027,-1.48964 -2.01834,-1.48964 -3.3565,0 -5.39054,-2.94352 -3.70578,-5.36272 2.68736,-3.85886 8,-1.38293 8,3.72836 0,4.69191 -5.68355,8.71205 -7.46377,5.27936 z m 5.21406,-6.92159 c 0.54676,-1.95695 -2.58648,-3.35389 -3.93038,-1.75234 -0.5751,0.68535 -0.7279,1.8588 -0.33954,2.60765 0.88355,1.70369 3.71332,1.13686 4.26992,-0.85531 z m 8.24971,3.74495 c 0,-3.33129 -0.33752,-4.14416 -1.5,-3.61255 -2.25697,1.03212 -1.80679,0.0827 1,-2.10894 l 2.5,-1.95212 v 5.98606 c 0,3.29233 -0.45,5.98605 -1,5.98605 -0.55,0 -1,-1.93432 -1,-4.2985 z m 18,0.82266 c 0,-1.9117 -0.5625,-3.74632 -1.25,-4.07692 -1,-0.48087 -1,-0.61989 0,-0.69516 0.6875,-0.0517 1.28553,-1.03256 1.32895,-2.17959 0.0629,-1.66117 0.19512,-1.72179 0.64994,-0.29793 0.31405,0.98317 1.06602,2.18157 1.67105,2.66312 0.76102,0.6057 0.71481,0.88115 -0.14994,0.89378 -0.6875,0.01 -1.25,1.31424 -1.25,2.89823 0,1.58398 0.5625,3.15047 1.25,3.48106 0.74674,0.35909 0.54544,0.63897 -0.5,0.69517 -1.28471,0.0691 -1.75,-0.83007 -1.75,-3.38176 z m 4.93043,1.58838 c -1.86639,-2.68 0.0703,-5.85869 3.56957,-5.85869 3.49926,0 5.43596,3.17869 3.56957,5.85869 -0.72295,1.0381 -2.32926,1.88746 -3.56957,1.88746 -1.24031,0 -2.84662,-0.84936 -3.56957,-1.88746 z m 5.88199,-2.00291 c 0.42914,-2.65556 -2.38033,-3.97912 -4.33749,-2.04342 -1.16414,1.15139 -1.23779,1.85909 -0.32922,3.16373 1.52083,2.18381 4.23818,1.53148 4.66671,-1.12031 z m 14.18758,2.79585 c 0,-0.60198 1.59595,-2.26997 3.54656,-3.70663 1.9506,-1.43666 3.37581,-3.22329 3.16713,-3.97027 -0.56096,-2.00799 -3.84834,-2.4309 -4.78949,-0.61614 -0.4485,0.8648 -1.16439,1.15655 -1.59087,0.64832 -1.16603,-1.38959 1.82405,-3.24179 4.66667,-2.89077 3.88906,0.48024 3.87732,4.92245 -0.0202,7.64895 l -3.13558,2.19349 3.3279,0.73691 c 3.22729,0.71462 3.19941,0.74165 -0.9221,0.89378 -2.3375,0.0863 -4.25,-0.33565 -4.25,-0.93764 z m 11.57143,-0.77818 c -2.91276,-3.47118 -1.10411,-10.04446 2.76375,-10.04446 2.98613,0 4.66482,2.14427 4.66482,5.95858 0,5.5698 -4.23074,7.8968 -7.42857,4.08588 z m 4.92857,-4.1022 c 0,-3.3602 -0.38245,-4.15468 -2,-4.15468 -1.33151,0 -2.10999,0.9252 -2.32908,2.76803 -0.47639,4.00712 0.56315,6.40563 2.57606,5.94366 1.27092,-0.29168 1.75302,-1.54492 1.75302,-4.55701 z m 6,2.95867 c 1.65,-1.61177 3.3375,-2.93317 3.75,-2.93642 0.4125,-0.004 0.75,-1.07847 0.75,-2.38936 0,-2.68738 -2.8671,-3.25684 -4.8,-0.95337 -0.854,1.01772 -1.2,1.04088 -1.2,0.0803 0,-1.80997 3.51813,-3.04495 6,-2.10623 2.88237,1.09022 2.4634,3.69314 -1.09722,6.81669 l -3.09722,2.71704 3.34722,0.73691 c 2.91506,0.64176 2.70167,0.75163 -1.65278,0.85093 l -5,0.11405 z m 10.07143,1.14353 c -0.86429,-1.02997 -1.57143,-2.86862 -1.57143,-4.08588 0,-4.31928 5.78721,-8.06953 7.46377,-4.83672 0.32,0.61704 -0.6168,1.01924 -2.08177,0.89379 -1.46496,-0.12544 -2.86272,0.44227 -3.10612,1.26157 -0.27659,0.93104 0.48027,1.48965 2.01834,1.48965 3.3565,0 5.39054,2.94351 3.70578,5.36272 -1.61354,2.31693 -4.4444,2.27944 -6.42857,-0.0851 z m 5.17886,-1.40388 c 0.54676,-1.95696 -2.58648,-3.3539 -3.93038,-1.75235 -0.5751,0.68535 -0.7279,1.8588 -0.33954,2.60765 0.88355,1.70369 3.71332,1.13686 4.26992,-0.8553 z M 72.135688,121.56362 C -4.09094,119.24787 2.2154876,119.64921 1.8039853,117.08766 c -0.3106458,-1.93374 0.1240959,-2.12101 3.4884155,-1.50266 11.6102642,2.13388 143.5358692,4.66529 249.0932792,4.77965 90.67794,0.0982 114.25,0.4311 114.25,1.6134 1e-5,2.04787 -225.8404,1.7322 -296.499992,-0.41443 z m 310.207252,-5.26486 c -5.68196,-5.32629 -5.70752,-17.255076 -0.0483,-22.560025 2.9438,-2.759533 6.0503,-3.09713 9.79402,-1.064361 2.88251,1.565146 3.24987,3.58862 1.04705,5.767291 -1.19804,1.184899 -1.80792,1.179012 -3.02961,-0.02932 -2.17821,-2.154324 -6.23472,0.282914 -7.06972,4.247645 -1.35531,6.43524 3.39424,11.76058 7.30285,8.1882 1.69876,-1.55263 1.6741,-1.68298 -0.45352,-2.39637 -1.52691,-0.51198 -2.25002,-1.66725 -2.25002,-3.59473 0,-2.57181 0.42539,-2.8403 4.5,-2.8403 4.34962,0 4.5,0.12146 4.5,3.63433 0,10.55347 -8.01977,16.52794 -14.29275,10.64762 z m 18.33171,-0.20607 c -4.30267,-5.50378 -1.48947,-16.487291 4.21104,-16.441064 2.47535,0.02002 3.60072,0.779314 5.54144,3.738524 1.109,1.69099 0.86274,2.33297 -1.74317,4.54428 -3.27168,2.77627 -6.03272,2.29463 -3.95433,-0.68979 1.33339,-1.91466 0.61969,-3.51066 -1.02741,-2.29754 -1.66305,1.22487 -1.25391,6.59256 0.56594,7.42478 0.89785,0.41059 2.46675,0.12562 3.48643,-0.63326 2.43919,-1.81535 3.8811,-1.74733 3.8811,0.18307 0,2.65783 -3.95161,6.77914 -6.5,6.77914 -1.33215,0 -3.33962,-1.17366 -4.46104,-2.60814 z m 13.62771,1.81366 c -1.13594,-1.3537 -0.70458,-11.55897 0.62124,-14.69782 1.34163,-3.17626 5.16468,-4.407146 7.66924,-2.46924 1.62873,1.26023 3.25632,15.51018 1.9675,17.22599 -0.43462,0.57862 -1.49546,0.72952 -2.35743,0.33534 -1.1403,-0.52146 -1.56722,-2.37712 -1.56722,-6.81199 0,-8.3027 -2.38743,-7.40867 -2.80226,1.04936 -0.28304,5.771 -1.56182,7.71516 -3.53107,5.36836 z m 16.56229,-0.004 c -1.63068,-0.78143 -4.22896,-6.74601 -4.22896,-9.70749 0,-1.25505 0.93266,-3.69491 2.07258,-5.42191 2.52566,-3.826416 6.83797,-4.166436 9.4369,-0.74408 1.76644,2.3261 1.75131,2.48237 -0.51932,5.36272 -2.52865,3.20765 -4.99016,3.9069 -4.99016,1.41757 0,-0.85207 0.54,-2.19275 1.2,-2.97929 0.93333,-1.11226 0.8372,-1.43006 -0.43261,-1.43006 -1.88969,0 -3.09971,3.53989 -2.18308,6.38655 0.67331,2.091 5.41569,2.75979 5.41569,0.76375 0,-1.54197 2.69632,-1.54968 3.49482,-0.01 0.33707,0.64995 -0.51592,2.52691 -1.89553,4.17101 -2.39824,2.85802 -4.60933,3.51553 -7.37033,2.19167 z m 11.29764,-0.69159 c -0.22585,-0.81931 -0.32422,-4.97541 -0.21862,-9.2358 l 0.19202,-7.74615 3.75,-0.12641 c 3.30226,-0.111303 3.75,0.20884 3.75,2.68136 0,1.70132 -0.5911,2.80777 -1.5,2.80777 -1.15152,0 -1.5,1.52275 -1.5,6.55444 0,5.79371 -0.23577,6.55443 -2.03138,6.55443 -1.11727,0 -2.21617,-0.67034 -2.44202,-1.48964 z m 11.35691,-0.76656 c -1.75023,-1.68897 -2.33806,-3.46273 -2.33806,-7.05511 0,-6.14802 2.60249,-9.75614 7.03696,-9.75614 4.79946,0 7.41759,4.47336 7.41759,12.67373 0,5.59924 -0.24852,6.39372 -2,6.39372 -1.65971,0 -2,-0.79448 -2,-4.66939 0,-6.49365 -0.83164,-8.43948 -3.60699,-8.43948 -1.90891,0 -2.39301,0.62527 -2.39301,3.09086 0,2.08862 0.64852,3.29296 2,3.71413 1.29427,0.40335 2,1.62553 2,3.46358 0,3.53616 -2.78203,3.80183 -6.11649,0.5841 z m 14.5751,0.76981 c -0.29444,-0.9144 -0.40558,-6.9871 -0.24698,-13.49488 0.26622,-10.923303 0.44202,-11.832332 2.28837,-11.832332 1.87864,0 2,0.794477 2,13.092562 0,11.53022 -0.20919,13.14056 -1.75302,13.49487 -0.96417,0.22128 -1.99393,-0.34583 -2.28837,-1.26022 z m 14.97164,-0.0881 c -0.27884,-0.86596 -0.37722,-6.89902 -0.21862,-13.4068 0.27141,-11.136349 0.41695,-11.854142 2.47436,-12.203148 1.87647,-0.318312 2.23045,0.27087 2.5,4.161094 0.21561,3.11182 0.84232,4.651164 2.00001,4.912444 1.30208,0.29389 1.7575,-0.653622 2,-4.161091 0.25045,-3.62243 0.71879,-4.541641 2.314,-4.541641 1.87879,0 2,0.794477 2,13.108872 0,12.31439 -0.12121,13.10888 -2,13.10888 -1.62963,0 -2.09259,-0.9931 -2.5,-5.36273 -0.34568,-3.70755 -0.96296,-5.36272 -2,-5.36272 -1.08003,0 -1.58534,1.58488 -1.80479,5.66065 -0.25422,4.72132 -0.63279,5.66065 -2.28139,5.66065 -1.08712,0 -2.20473,-0.70851 -2.48357,-1.57447 z m 19.79871,0.77687 c -0.69907,-0.33519 -1.97319,-2.22757 -2.83138,-4.20528 -2.70796,-6.24057 0.40863,-14.06458 5.60242,-14.06458 5.17761,0 8.31083,7.82297 5.61836,14.02782 -1.96795,4.53519 -4.79583,5.96508 -8.3894,4.24203 z m 4.58746,-9.12596 c 0.25298,-2.54663 -0.0979,-3.18532 -1.75,-3.18532 -1.49815,0 -2.06642,0.76469 -2.06642,2.78067 0,5.41085 3.28452,5.75909 3.81642,0.40464 z m 6.85025,9.12908 c -1.49204,-1.7781 -0.6178,-5.16411 1.33333,-5.16411 1.1,0 2,-0.40726 2,-0.90504 0,-0.49778 -0.9,-1.57488 -2,-2.39354 -2.22112,-1.65304 -2.65256,-6.17251 -0.8,-8.38023 0.66,-0.78653 2.685,-1.43006 4.5,-1.43006 2.63333,0 3.3,0.4815 3.3,2.38343 0,1.58895 -0.66667,2.38343 -2,2.38343 -1.1,0 -2,0.51741 -2,1.14979 0,0.63239 0.9,1.7238 2,2.42536 2.40423,1.53338 2.63148,6.22751 0.42857,8.85275 -1.59409,1.8997 -5.54406,2.52954 -6.7619,1.07821 z m 27.9311,-0.0821 c -0.32878,-0.39181 -0.59777,-4.64503 -0.59777,-9.45162 0,-7.94477 0.18182,-8.73925 2,-8.73925 1.81965,0 2,0.79448 2,8.81037 0,6.45909 -0.37422,8.98151 -1.40223,9.45161 -0.77123,0.35269 -1.67123,0.32068 -2,-0.0711 z m 17.47481,-2.26341 c -4.37034,-6.62117 -1.43131,-16.403979 4.86414,-16.190662 5.23458,0.177363 7.06328,3.070162 7.06328,11.173352 0,6.17111 -0.22811,6.96559 -2,6.96559 -1.69542,0 -2,-0.79448 -2,-5.2168 0,-6.13466 -2.04606,-9.1274 -4.54826,-6.65263 -2.22456,2.20017 -1.42799,6.4261 1.29826,6.88752 3.92317,0.664 2.35317,6.17362 -1.75921,6.17362 -0.4651,0 -1.77829,-1.413 -2.91821,-3.14 z m 57.26024,0.0698 c -5.40468,-6.44085 -0.34351,-19.749298 6.16635,-16.214561 3.8094,2.068441 4.17732,4.719661 1.15481,8.321621 -2.05939,2.45422 -2.88883,2.81792 -3.84034,1.68399 -0.94394,-1.12493 -0.94697,-1.76413 -0.0136,-2.8764 1.73488,-2.06748 1.47808,-3.90368 -0.3,-2.14509 -1.95522,1.93379 -1.93129,7.02787 0.0372,7.9281 0.84548,0.38664 2.39212,-0.21901 3.43698,-1.34587 1.97699,-2.1321 4.02582,-1.59795 4.02582,1.04956 0,2.04969 -2.94665,4.97996 -5.86024,5.82767 -1.6846,0.49013 -3.06065,-0.14797 -4.80694,-2.22905 z m 32.51789,1.6252 c -3.27536,-1.30686 -5.27591,-6.64389 -4.35777,-11.62557 0.75136,-4.07678 4.64493,-7.83788 6.99934,-6.761201 2.19776,1.005058 1.85441,5.145141 -0.48723,5.874881 -2.75007,0.85704 -3.62054,4.20039 -1.69198,6.49868 1.30772,1.55844 1.85899,1.62127 3.13674,0.35753 1.16229,-1.14957 1.55019,-3.90307 1.55019,-11.00391 0,-9.139813 0.0786,-9.457386 2.25,-9.089876 2.13777,0.361819 2.24889,0.896143 2.22769,10.712586 -0.0178,8.23501 -0.38607,10.81079 -1.81476,12.69214 -2.28752,3.01227 -4.48565,3.67201 -7.81222,2.34471 z m -99.65071,-1.17682 c -1.59866,-1.90515 -1.65752,-21.212543 -0.0647,-21.212543 1.59124,0 5.86467,5.716403 5.86467,7.844963 0,0.96996 -0.675,2.07225 -1.5,2.44952 -0.825,0.37728 -1.5,1.9861 -1.5,3.57515 0,1.58905 0.675,3.19787 1.5,3.57514 0.825,0.37729 1.5,1.70113 1.5,2.9419 0,2.60721 -3.84572,3.15481 -5.8,0.82587 z m 24.8,-11.67882 c 0,-12.314393 0.12121,-13.10887 2,-13.10887 1.87879,0 2,0.794477 2,13.10887 0,12.3144 -0.12121,13.10888 -2,13.10888 -1.87879,0 -2,-0.79448 -2,-13.10888 z m 24,2.6486 c 0,-12.582 1.31667,-15.75747 6.53365,-15.75747 4.77893,0 7.3537,4.541379 5.64083,9.94929 -0.7703,2.43199 -0.83397,3.8907 -0.18114,4.15003 0.55366,0.21994 1.00666,3.03656 1.00666,6.25915 0,5.0648 -0.27119,5.85928 -2,5.85928 -2.03749,0 -2.36262,-0.90349 -2.03864,-5.6651 0.10206,-1.49987 -0.51141,-3.00325 -1.38931,-3.40472 -1.73713,-0.7944 -2.14972,-5.85636 -0.57205,-7.01835 1.49311,-1.0997 1.20688,-4.171001 -0.38871,-4.171001 -1.62836,0 -2.61385,5.719751 -2.14143,12.428811 0.41853,5.94373 -0.20233,7.83036 -2.57685,7.83036 -1.71357,0 -1.89301,-0.99155 -1.89301,-10.46028 z m 91.5,3.11815 c 6.44425,-1.01958 91.26133,-1.00945 98.5,0.0119 3.025,0.42676 -19.025,0.77669 -49,0.77763 -29.975,9.3e-4 -52.25,-0.3543 -49.5,-0.78939 z M 83.740319,107.28119 C 71.261041,103.28196 60.912365,92.942478 54.915216,78.481713 51.828154,71.037964 51.203864,68.176354 50.833767,59.773248 49.607667,31.934481 65.757955,10.322357 89.385688,8.1835252 c 3.9875,-0.3609588 7.25,-0.3314161 7.25,0.065664 0,0.3970677 -1.9125,1.3352937 -4.25,2.0849418 -9.042769,2.9001 -18.097715,11.891453 -22.903478,22.742633 -1.966239,4.439678 -2.299215,6.981369 -2.321041,17.717144 -0.02395,11.78104 0.171177,13.010176 3.248632,20.463778 8.154792,19.750912 27.471857,31.078754 43.518039,25.5197 3.09853,-1.073462 6.43787,-2.296556 7.42077,-2.717982 3.38598,-1.451803 -2.91167,5.536855 -8.19074,9.089466 -8.76961,5.90162 -19.286722,7.37897 -29.417551,4.13233 z m 592.895371,-4.59818 c 0,-2.25537 0.45,-4.432115 1,-4.837203 0.55,-0.405088 1,0.09951 1,1.121381 0,2.421722 3.60585,2.417442 4.38595,-0.0048 0.90925,-2.823688 2.61405,-0.831425 2.61405,3.054872 0,3.88629 -1.7048,5.87855 -2.61405,3.05482 -0.76667,-2.38094 -4.38595,-2.44327 -4.38595,-0.0756 0,0.98317 -0.45,1.78758 -1,1.78758 -0.55,0 -1,-1.8453 -1,-4.10067 z m 11.18963,-0.36827 c 0.26946,-3.879844 0.67287,-4.51864 3.06037,-4.846016 1.5125,-0.207394 2.75,0.19481 2.75,0.893787 0,0.698977 -0.92656,1.270869 -2.05902,1.270869 -1.14006,0 -1.77868,0.54055 -1.4309,1.21115 0.34546,0.66614 1.01593,0.92553 1.48992,0.57642 0.47399,-0.3491 1.14446,-0.0897 1.48992,0.57643 0.35466,0.68386 -0.35536,1.21115 -1.6309,1.21115 -2.5841,0 -1.48214,1.83014 1.64098,2.72537 1.11225,0.31883 0.30868,0.63466 -1.81037,0.71154 -3.80901,0.13819 -3.81025,0.13665 -3.5,-4.3307 z m 7.81411,3.57515 c 0.005,-1.1407 3.82386,-8.639941 4.4,-8.639941 0.81187,0 4.82642,8.464971 4.30771,9.083131 -0.28418,0.33866 -1.44928,-0.0783 -2.58911,-0.92663 -1.63534,-1.21709 -2.33077,-1.2345 -3.29738,-0.0826 -1.37121,1.63409 -2.82691,1.92615 -2.82122,0.56602 z m 4.99626,-3.87308 c 0,-0.65544 -0.19844,-1.19171 -0.44098,-1.19171 -0.24254,0 -0.7191,0.53627 -1.05902,1.19171 -0.33992,0.65545 -0.14148,1.19172 0.44098,1.19172 0.58246,0 1.05902,-0.53627 1.05902,-1.19172 z m 5.66667,3.97238 c -1.03447,-1.23278 -0.78532,-7.319467 0.33333,-8.143383 0.58429,-0.430341 1,0.794898 1,2.947363 0,2.70651 0.59695,3.96982 2.25,4.76166 2.21271,1.05991 2.20718,1.07902 -0.33333,1.1533 -1.42084,0.0416 -2.88334,-0.28197 -3.25,-0.71894 z m 7.33333,-4.04271 c 0,-2.921327 0.39607,-4.545481 1,-4.100673 0.55,0.405088 1,2.581833 1,4.837203 0,2.25536 -0.45,4.10067 -1,4.10067 -0.55,0 -1,-2.17675 -1,-4.8372 z m 4,0.0703 c 0,-5.352248 0.83309,-5.895301 3.55178,-2.315243 l 1.86175,2.451613 1.00037,-2.749542 c 0.92024,-2.529286 1.02916,-2.381966 1.35959,1.838932 0.46406,5.92797 -0.21526,6.58154 -3.27743,3.15326 l -2.49606,-2.79448 v 2.59116 c 0,1.42514 -0.45,2.59116 -1,2.59116 -0.55,0 -1,-2.14509 -1,-4.76686 z m 11.75,3.50976 c -2.32686,-1.65507 -2.22612,-5.50567 0.18426,-7.042973 2.46441,-1.571777 6.06574,-1.596672 6.06574,-0.04195 0,0.655444 -1.09844,1.191716 -2.44098,1.191716 -3.00004,0 -4.13756,1.904327 -2.52267,4.223207 1.61343,2.31676 4.35206,2.27708 3.60202,-0.0522 -0.39583,-1.22929 0.0621,-1.78757 1.46634,-1.78757 1.40433,0 1.93842,0.65121 1.71042,2.0855 -0.38921,2.44852 -5.38484,3.33071 -8.06513,1.42425 z m 34.82143,-0.6156 c -0.86429,-1.02997 -1.57143,-2.33235 -1.57143,-2.89416 0,-3.519937 7.00141,-6.464774 8.5,-3.575149 0.36058,0.695283 -0.65628,1.191716 -2.44098,1.191716 -2.33472,0 -3.05902,0.534153 -3.05902,2.255933 0,2.59678 2.24163,3.97465 4.66404,2.86687 1.11889,-0.51167 1.42717,-0.30421 0.94099,0.63326 -1.03763,2.0008 -5.19022,1.71832 -7.0336,-0.47847 z m 8.43231,0.97891 c 0.009,-2.12096 4.1169,-8.691739 5.01877,-8.027488 1.32761,0.977802 4.2503,7.801698 3.64861,8.518738 -0.262,0.31223 -1.40895,-0.12638 -2.54878,-0.97469 -1.63534,-1.21709 -2.33077,-1.2345 -3.29738,-0.0826 -1.37121,1.63409 -2.82691,1.92614 -2.82122,0.56601 z m 10.40747,-2.08283 c -1.25065,-5.938295 1.85831,-8.38242 6.7191,-5.282279 1.59618,1.018023 1.75971,1.618169 0.81181,2.979289 -0.91865,1.31912 -0.90556,2.1086 0.0579,3.49204 1.62284,2.33028 0.0493,2.292 -2.77749,-0.0676 -2.01155,-1.67906 -2.22251,-1.67906 -2.22251,0 0,2.9654 -1.90156,2.14164 -2.58879,-1.12148 z m 5.58879,-2.98196 c 0,-0.65544 -0.675,-1.191713 -1.5,-1.191713 -0.825,0 -1.5,0.536273 -1.5,1.191713 0,0.65545 0.675,1.19172 1.5,1.19172 0.825,0 1.5,-0.53627 1.5,-1.19172 z m 5,1.19172 c 0,-4.50203 0.16667,-4.766865 3,-4.766865 1.65,0 3,0.536272 3,1.191716 0,0.655444 -0.9,1.191716 -2,1.191716 -1.1,0 -2,0.593653 -2,1.319213 0,0.72558 0.66059,1.01713 1.46797,0.64792 0.80739,-0.36923 1.73395,-0.15847 2.05902,0.46835 0.32508,0.62682 -0.33551,1.13966 -1.46797,1.13966 -3.04495,0 -2.50024,2.14547 0.69098,2.72159 2.21205,0.39934 2.01644,0.53138 -1,0.67501 -3.73331,0.17776 -3.75,0.15734 -3.75,-4.58831 z m -54,2.52936 c 0,-0.5752 0.675,-1.71341 1.5,-2.52936 1.62821,-1.61036 1.83174,-1.22516 0.89301,1.69011 -0.64255,1.99548 -2.39301,2.60938 -2.39301,0.83925 z m 3.01531,0.152 c 0.0364,-2.12183 1.70551,-3.409 4.73469,-3.65114 1.7875,-0.14289 3.25,0.24389 3.25,0.85951 0,1.58876 6.03745,-2.194534 6.67836,-4.184914 0.29217,-0.907337 0.8804,-1.39252 1.30718,-1.078181 0.88541,0.652119 -2.09182,8.850525 -3.23554,8.909705 -0.4125,0.0213 -0.76368,-0.89967 -0.78041,-2.0467 -0.029,-1.98618 -0.0789,-1.98618 -1.04969,0 -1.14889,2.3507 -4.9199,2.85308 -4.9199,0.65545 0,-1.11227 -0.26667,-1.11227 -1.2,0 -1.31741,1.56998 -4.8091,1.96132 -4.78469,0.53627 z m 63.73469,-2.35172 c 1.7875,-0.26436 4.7125,-0.26436 6.5,0 1.7875,0.26435 0.325,0.48064 -3.25,0.48064 -3.575,0 -5.0375,-0.21629 -3.25,-0.48064 z M 542.02923,96.75317 c -0.82768,-2.570412 0.32393,-5.772676 1.85699,-5.163686 0.68721,0.272987 1.24947,1.747641 1.24947,3.277009 0,3.266291 -2.22675,4.618686 -3.10646,1.886677 z m 199.01617,-4.778026 2.44902,-5.489018 -3.35158,-1.668856 c -1.84338,-0.917871 -4.11334,-3.054329 -5.04438,-4.747685 -1.58395,-2.880876 -1.58521,-3.274499 -0.0195,-6.122166 0.9203,-1.673835 2.29364,-3.327033 3.05187,-3.673772 1.56124,-0.713967 0.99766,-3.480403 -1.39713,-6.858003 -2.20942,-3.116146 -8.95222,-6.626417 -12.78898,-6.657878 -5.02645,-0.04123 -4.67537,-1.847124 0.67689,-3.48186 13.45639,-4.109954 13.276,-16.748433 -0.31976,-22.401552 -7.9403,-3.301577 -27.21667,-2.948793 -34.82505,0.637366 -7.22144,3.403766 -8.19926,4.774931 -5.85905,8.215915 l 1.80863,2.659349 6.16549,-3.789406 c 10.90248,-6.700839 22.54382,-4.371714 22.54382,4.510418 0,4.905627 -4.87629,8.4598 -13.0354,9.501086 -5.95101,0.75948 -6.4646,1.050688 -6.4646,3.665479 0,2.662698 0.35984,2.840872 5.75,2.847104 7.75732,0.0095 12.74546,1.832323 15.20451,5.557836 2.86855,4.345916 2.60226,8.846222 -0.74993,12.673535 -6.03787,6.893654 -18.94817,4.98794 -23.10634,-3.410772 -1.83957,-3.715569 -2.45769,-4.101802 -6.56451,-4.101802 -4.25614,0 -8.53373,2.853867 -8.53373,5.693415 0,2.699564 3.66433,6.364468 8.75864,8.76002 4.97729,2.340518 7.60452,2.705601 19.74136,2.743286 14.10525,0.0438 15.87652,-0.344294 27,-5.915779 1.78026,-0.891692 1.8495,-0.781254 0.63017,1.005186 -3.28454,4.812202 -21.71216,8.324284 -35.18454,6.705748 C 687.22911,87.588673 680.6604,84.95026 677.2,80.645917 c -3.37028,-4.192226 -2.82407,-7.541277 1.77498,-10.883202 5.69852,-4.140869 11.66033,-2.551777 15.17379,4.0445 2.84543,5.342113 8.93989,7.572359 14.70748,5.382153 7.64302,-2.902391 9.04916,-11.939889 2.51495,-16.164059 -2.37834,-1.537528 -5.30251,-2.050895 -11.03774,-1.937813 l -7.80222,0.153827 0.30222,-4.936218 0.30223,-4.936218 7.1285,-0.661855 c 9.83522,-0.913164 14.50465,-5.010057 11.60619,-10.183105 -3.02186,-5.3933 -11.04458,-5.32163 -19.89791,0.177745 l -6.80855,4.229232 -2.73542,-3.931303 c -1.50448,-2.162214 -2.60379,-4.448068 -2.44291,-5.079665 0.49293,-1.935144 9.21781,-6.561778 14.71857,-7.804976 2.86248,-0.646935 9.09854,-1.176247 13.85792,-1.176247 16.39001,0 27.24824,5.77602 27.88982,14.835932 0.37438,5.28663 -1.55216,8.382827 -7.06884,11.360555 l -3.75263,2.025548 4.18033,1.492576 c 5.59327,1.997054 8.62506,4.502898 10.40172,8.597268 1.22383,2.820346 2.11253,3.398178 5.22638,3.398178 3.98529,0 8.19683,2.695194 8.19683,5.245594 0,4.203481 6.73248,7.28018 11.9949,5.481591 6.88932,-2.35463 10.04146,-9.924582 6.97546,-16.751777 -2.69031,-5.990613 -11.34727,-7.474573 -20.30479,-3.480609 -4.21208,1.878073 -6.00231,2.143349 -8.08781,1.198425 -2.58789,-1.172541 -2.6575,-1.445193 -2.06101,-8.072611 0.33954,-3.772484 0.92467,-10.344844 1.30029,-14.605228 l 0.68296,-7.746153 21.00045,-0.738792 c 11.55024,-0.406327 22.91274,-1.123812 25.25,-1.594385 3.7939,-0.763866 4.24955,-0.606047 4.24955,1.471865 0,3.160597 -3.49671,8.228976 -7.3383,10.636659 -2.39177,1.499024 -6.75358,2.109552 -17.9117,2.507096 l -14.75,0.525523 v 3.500701 3.500689 l 4.75,-0.966803 c 6.55379,-1.333948 18.91317,-0.998205 23.86282,0.648233 2.26205,0.752438 5.67074,2.627996 7.57487,4.167907 3.38403,2.736728 3.51321,2.750468 5.73185,0.609503 4.8934,-4.722102 13.7266,-5.41487 20.10192,-1.576556 2.06348,1.242328 2.97164,1.224035 5,-0.1007 6.30276,-4.116461 15.85018,-3.106029 20.72854,2.193782 2.53009,2.748668 3.14283,10.557549 1,12.744265 -0.6875,0.701579 -2.825,2.904679 -4.75,4.895778 -3.54503,3.66676 -16.82925,11.798332 -19.27445,11.798332 -1.60584,0 -16.41884,-8.54716 -19.20678,-11.082385 -1.85309,-1.685117 -2.11327,-1.519878 -4.02281,2.554869 -4.24003,9.04775 -20.79204,15.35389 -36.78407,14.01434 -12.11764,-1.015017 -11.89653,-2.593708 0.29364,-2.096474 13.50174,0.550733 23.9656,-1.89793 29.86185,-6.988008 4.87738,-4.210521 6.40535,-7.358698 6.40535,-13.197409 0,-5.914333 -3.13618,-10.887017 -9.00721,-14.281739 -4.06536,-2.350659 -6.38167,-2.765174 -15.76552,-2.821304 -6.05,-0.03623 -12.89304,0.401239 -15.20675,0.972071 l -4.20674,1.037854 0.542,-4.613001 c 0.2981,-2.537163 0.71451,-5.283353 0.92536,-6.102658 0.28288,-1.099203 4.12649,-1.496497 14.66475,-1.515815 11.84528,-0.02169 14.99258,-0.410987 18.4507,-2.282112 3.50171,-1.89472 7.31239,-6.677374 6.1617,-7.733353 -0.18206,-0.167067 -10.68102,0.01299 -23.33102,0.399999 l -23,0.703768 -1.20313,12.513016 c -0.66172,6.882159 -1.01335,13.183356 -0.78139,14.002661 0.54972,1.941638 3.0396,1.859446 7.98452,-0.26356 2.2,-0.94453 6.79684,-1.740859 10.2152,-1.769627 5.55731,-0.04672 6.58937,0.339198 9.75,3.646293 3.06188,3.203761 3.5348,4.415307 3.5348,9.055592 0,4.443353 -0.52387,5.94019 -3.07163,8.776432 -5.13057,5.711499 -15.84174,6.29151 -18.92837,1.024972 -4.10093,-6.997176 -6.03197,-8.560683 -9.69749,-7.851811 -4.09796,0.792499 -7.30251,3.796412 -7.30251,6.8453 0,2.345852 3.57609,6.101197 8.06472,8.468971 2.79711,1.475487 4.30031,3.892553 1.68528,2.709829 -0.69771,-0.315559 -2.13366,1.376673 -3.25,3.830043 -1.1,2.417466 -2.57135,4.613857 -3.26966,4.880873 -0.75436,0.288443 -0.27571,-1.742264 1.17937,-5.003534 z m 92.48251,-17.402019 c 2.80928,-2.059962 5.10778,-4.105455 5.10778,-4.54554 0,-0.440087 -2.05312,-0.605559 -4.56249,-0.367718 -3.51107,0.332781 -4.86344,-0.05803 -5.86837,-1.69583 -1.23389,-2.010962 -1.37101,-1.983221 -2.48768,0.503314 -0.64999,1.44737 -1.59006,2.330891 -2.08905,1.963382 -0.49898,-0.36751 -1.62056,0.975684 -2.49241,2.984876 -2.05959,4.746385 -3.15238,3.769345 -4.00015,-3.576479 -0.77452,-6.711071 -2.01872,-7.705558 -2.99733,-2.395767 -0.77174,4.187343 -2.27262,5.689432 -3.10425,3.106751 -0.46085,-1.431205 -1.5716,-1.664118 -5.1492,-1.079742 -3.32658,0.543373 -4.36793,0.371691 -3.84631,-0.634119 0.3934,-0.758573 1.72372,-1.379223 2.95626,-1.379223 1.23254,0 2.78098,-0.643527 3.44098,-1.430059 0.91772,-1.093666 1.47582,-1.101362 2.37255,-0.03271 0.89672,1.068645 1.61462,0.220633 3.05187,-3.605027 2.21961,-5.90811 3.26974,-4.839367 4.33774,4.414665 0.6721,5.823663 0.7418,5.929876 2.188,3.334211 0.82158,-1.474595 2.05901,-2.681077 2.74984,-2.681077 0.69083,0 2.0032,-1.206612 2.91639,-2.681361 0.91318,-1.474752 1.87538,-2.145092 2.13822,-1.489648 1.34076,3.343409 2.37721,3.949159 7.4279,4.341251 5.10619,0.396401 5.57023,0.208212 6.76034,-2.741626 3.8583,-9.56329 -9.73854,-17.29861 -19.65976,-11.184548 -3,1.848781 -3.58154,1.859887 -7.19371,0.137501 -5.05427,-2.410031 -11.17997,-2.386876 -15.50439,0.05863 -1.87949,1.062868 -3.59972,2.284317 -3.82273,2.714323 -0.77572,1.495771 3.27829,13.718313 5.10203,15.382226 1.00964,0.921159 5.3646,3.735737 9.67768,6.254617 l 7.84196,4.579781 4.80025,-2.254822 c 2.64014,-1.240154 7.09876,-3.940247 9.90804,-6.000208 z M 733.01569,94.327731 c -0.82067,-2.548654 0.41862,-4.228077 3.12,-4.228077 3.34303,0 3.93868,1.882111 1.29422,4.089468 -2.77831,2.319091 -3.70275,2.348109 -4.41422,0.138609 z m 3.62,-1.985308 c 0,-0.655444 -0.45,-0.860282 -1,-0.455195 -0.55,0.405087 -1,1.272793 -1,1.928232 0,0.655443 0.45,0.860287 1,0.455199 0.55,-0.405088 1,-1.272793 1,-1.928236 z m -42.75,0.442443 c 6.4625,-0.20758 17.0375,-0.20758 23.5,0 6.4625,0.20758 1.175,0.37742 -11.75,0.37742 -12.925,0 -18.2125,-0.16984 -11.75,-0.37742 z m 67.5,-2.77e-4 c 6.7375,-0.206174 17.7625,-0.206174 24.5,0 6.7375,0.206175 1.225,0.374862 -12.25,0.374862 -13.475,0 -18.9875,-0.168687 -12.25,-0.374862 z M 265.32092,80.505274 c -4.69463,-0.961084 -8.55278,-4.271627 -11.18523,-9.597643 -1.72295,-3.485904 -2.0468,-6.646477 -2.33786,-22.815963 l -0.33786,-18.769524 h 6.99197 6.99196 l 0.34589,16.626069 c 0.21894,10.523732 0.77271,17.134096 1.50877,18.010246 2.66011,3.166373 3.33713,-0.369075 3.33713,-17.426759 V 29.322144 h 7 7 l -0.004,19.365382 c -0.003,17.09257 -0.23242,19.812349 -1.95226,23.173711 -3.52551,6.8905 -10.05118,10.140048 -17.35877,8.644037 z m 13.16051,-7.539083 3.65426,-4.352532 V 50.457546 32.301434 l -4.25,-0.366441 -4.25,-0.366452 v 16.071562 c 0,13.021557 -0.29822,16.426952 -1.57143,17.944254 -1.88166,2.242402 -5.98971,2.463427 -7.11955,0.383052 -0.44496,-0.819305 -1.03402,-8.729322 -1.30902,-17.577812 l -0.5,-16.088163 h -4 -4 l -0.26318,16.088163 c -0.21973,13.432413 0.0279,16.772776 1.5,20.235418 4.48741,10.555028 15.13643,12.646007 22.10892,4.341176 z m -95.73278,6.224597 c -2.00573,-0.884218 -2.11268,-1.734743 -2.10738,-16.760121 0.007,-19.204512 0.84488,-23.251519 5.95457,-28.752837 6.30515,-6.788395 14.97287,-7.27726 21.04633,-1.187021 5.81784,5.833914 6.44425,8.642347 6.47009,29.007662 l 0.0234,18.471599 h -7 -7 l -0.5,-5.866167 c -0.70076,-8.221597 -2.80788,-8.530195 -3.19548,-0.467993 l -0.30452,6.33416 -5.63704,0.0761 c -3.10037,0.04185 -6.58787,-0.343067 -7.75,-0.855385 z m 10.88704,-8.754445 v -6.55444 h 4 4 v 6.55444 6.554437 h 5 5 V 61.522591 c 0,-18.013499 -1.32334,-23.620855 -6.46893,-27.410691 -6.926,-5.101151 -17.18403,-1.772546 -20.09125,6.519365 -1.4904,4.250898 -2.13584,33.9411 -0.77315,35.565038 0.36666,0.436962 2.61666,0.794477 5,0.794477 h 4.33333 z m 0.30947,-19.229434 c -1.57775,-4.899787 4.63079,-8.595525 6.69987,-3.98822 0.62957,1.401875 0.89914,3.311373 0.59905,4.243318 -0.77116,2.394884 -6.51021,2.194295 -7.29892,-0.255098 z m 24.39949,28.614943 c -1.29539,-1.543741 -0.78539,-38.928934 0.57476,-42.132468 0.68983,-1.624726 3.0457,-4.198653 5.23526,-5.719843 7.38006,-5.127226 19.95921,-2.098111 23.84548,5.742092 1.94442,3.922699 2.08512,12.539103 0.26849,16.442008 -1.10527,2.374601 -1.01861,3.453342 0.58844,7.32419 1.35355,3.260241 1.79924,6.505377 1.58162,11.515841 l -0.30301,6.976398 -6.25,0.354794 -6.25,0.354795 v -6.383531 c 0,-7.149419 -1.67369,-10.896632 -4.5661,-10.222998 -1.67405,0.389881 -1.9339,1.488129 -1.9339,8.173669 v 7.723271 l -6.04104,0.348331 c -3.32257,0.191581 -6.36007,-0.03187 -6.75,-0.496549 z m 28.37283,-2.831072 c 0.50501,0 0.91821,-2.919592 0.91821,-6.487982 0,-5.092074 -0.50564,-7.188521 -2.35013,-9.743977 l -2.35014,-3.256006 2.35014,-4.127043 c 2.72172,-4.779603 2.89117,-7.094737 0.92891,-12.691452 -1.70337,-4.858303 -5.69857,-7.566728 -11.67458,-7.914423 -5.40159,-0.314267 -8.70841,0.834118 -11.6542,4.047246 -2.1518,2.347084 -2.25,3.277338 -2.25,21.313921 V 76.99078 h 4 4 v -8.22861 -8.228607 l 4.25,0.643395 c 5.92131,0.896421 6.75,2.040373 6.75,9.317924 0,6.428902 1.21896,8.182264 4.83179,6.950105 0.73248,-0.249813 1.74498,-0.454207 2.25,-0.454207 z M 228.22003,52.127378 c -0.29353,-0.566005 -0.47218,-2.97923 -0.39699,-5.362721 0.13243,-4.197914 0.25618,-4.333639 3.95163,-4.333639 2.97608,0 4.17879,0.661808 5.46977,3.009833 1.54964,2.81848 1.54126,3.159406 -0.13194,5.362722 -1.82515,2.403416 -7.86618,3.302733 -8.89247,1.323805 z m 6.41566,-2.521218 c 1.31241,-0.989005 1.28204,-1.390172 -0.24286,-3.207896 -2.02504,-2.413892 -4.4368,-0.646589 -3.42131,2.507096 0.68875,2.138939 1.53977,2.301704 3.66417,0.7008 z m 63,30.120408 c -2.94416,-0.661014 -6.64854,-4.475198 -8.52965,-8.782491 -0.92488,-2.117736 -1.40505,-8.943453 -1.55094,-22.046737 l -0.21131,-18.979338 8.11825,-0.345585 8.11825,-0.345598 0.2777,17.029619 0.2777,17.029607 5.29446,0.362055 5.29447,0.362043 -0.29447,7.979962 -0.29446,7.979965 -7,0.158895 c -3.85,0.08739 -8.125,-0.09368 -9.5,-0.402397 z m 13.8075,-7.80058 c -0.30207,-4.975366 -0.3779,-5.071621 -4.29482,-5.451519 -6.35587,-0.616454 -6.51268,-1.069752 -6.51268,-18.826643 v -15.94225 h -5.60899 -5.609 l 0.40135,17.577808 c 0.57069,24.994444 1.95212,27.608316 14.62414,27.671157 l 7.3075,0.03624 z m 15.9425,7.963183 c -0.4125,-0.501709 -0.75,-4.84486 -0.75,-9.651447 v -8.739253 h 5.09267 5.09267 l -4.47087,-5.926021 c -5.01811,-6.651383 -6.13153,-10.872226 -4.25242,-16.120411 2.96452,-8.279625 8.79161,-11.32161 21.68717,-11.32161 h 8.85078 v 10.129584 10.129584 h -4.13684 -4.13684 l 4.63684,5.907526 c 2.55026,3.249142 4.73147,7.137115 4.84713,8.63994 0.11566,1.502831 0.45316,-5.579804 0.75,-15.739182 l 0.53971,-18.471594 7.70536,-0.3471 7.70536,-0.347099 0.29464,8.68911 c 0.22967,6.773117 0.6254,8.68911 1.79464,8.68911 1.16839,0 1.56495,-1.910082 1.79381,-8.63994 l 0.29381,-8.639939 h 7.45619 7.45619 v 25.621889 25.621894 h -7.5 -7.5 v -9.533727 c 0,-8.739248 -0.16667,-9.53373 -2,-9.53373 -1.83421,0 -2,0.794482 -2,9.583859 v 9.583856 l -7.75,-0.348059 -7.75,-0.348057 -0.5,-6.554437 c -0.45129,-5.915918 -0.56902,-6.186714 -1.20849,-2.77974 -0.43681,2.327263 -2.10819,5.04698 -4.35872,7.09263 -3.41506,3.104172 -4.40023,3.348428 -15.29151,3.791248 -6.4027,0.260323 -11.97878,0.06283 -12.39128,-0.438884 z m 25.15881,-4.629766 c 3.40533,-2.098571 5.56654,-7.766498 4.63961,-12.167717 -0.69209,-3.286156 -6.05076,-10.251163 -10.54842,-13.71044 -3.68941,-2.83763 -2.17302,-3.932543 6.11408,-4.414699 2.31122,-0.134474 2.68516,-0.770147 3.22764,-5.486779 0.93131,-8.097292 0.32579,-8.970343 -6.19871,-8.937475 -11.18454,0.05637 -17.86644,3.610195 -19.49261,10.367367 -1.20749,5.017445 1.42841,11.14495 6.91073,16.064913 6.08601,5.461717 5.75928,6.907328 -1.56113,6.907328 h -6 v 6.55444 6.554437 h 10.04966 c 6.83219,0 10.94914,-0.554311 12.85915,-1.731375 z m 21.30075,-8.10028 0.29044,-9.831659 h 4 4 l 0.5,9.53373 0.5,9.533726 h 5 5 l 0.27167,-22.21703 0.27167,-22.217039 -4.27167,-0.525856 c -6.50403,-0.800654 -6.77167,-0.455224 -6.77167,8.740091 v 8.214509 h -4.5 -4.5 v -8.34201 -8.342011 h -5 -5 v 22.6426 22.642604 h 4.95956 4.95956 z M 103.71724,78.251896 C 91.881627,77.77233 87.182988,77.170838 86.883908,76.096993 c -0.31951,-1.147195 2.995098,-1.488002 14.418452,-1.482501 19.2098,0.0093 31.51114,1.140372 31.03704,2.85389 -0.42606,1.539875 -6.11312,1.695555 -28.62216,0.783514 z M 142.63569,53.752318 V 28.130429 l 9.25,0.02622 c 9.89945,0.02801 15.81103,2.179422 20.59732,7.496024 6.59441,7.325048 8.41052,21.3013 4.00268,30.803552 -2.92761,6.311233 -9.21516,11.691801 -14.68418,12.565984 l -4.16582,0.665878 V 72.04624 c 0,-7.384034 0.10045,-7.686981 2.97809,-8.981413 6.31413,-2.840229 6.69535,-14.083519 0.5945,-17.533584 -1.85616,-1.049675 -3.86934,-1.908509 -4.47372,-1.908509 -0.74965,0 -1.09887,5.680814 -1.09887,17.875737 v 17.875741 h -6.5 -6.5 z m 10.11946,4.93797 -0.38053,-17.450986 h 4.55381 c 11.03253,0 16.03211,16.129695 7.12918,23.000244 -2.89026,2.230467 -3.39901,3.307748 -3.40954,7.219776 -0.0119,4.412733 0.0985,4.566724 2.73762,3.819296 9.03274,-2.558166 14.86548,-15.313718 12.26507,-26.822344 -1.38094,-6.111596 -7.05633,-13.830947 -11.33104,-15.411853 -1.75122,-0.647638 -6.78403,-1.347902 -11.18403,-1.556119 l -8,-0.378584 -0.33,7.746153 c -0.1815,4.260384 -0.0251,14.286241 0.34755,22.279687 0.71782,15.397409 0.92163,15.917418 5.98245,15.263958 1.91851,-0.24772 1.9845,-0.969257 1.61946,-17.709228 z M 397.4252,54.960766 c -0.15923,-13.458869 -0.13951,-25.00159 0.0438,-25.650491 0.51095,-1.808512 15.84713,-1.507664 16.43643,0.322419 0.26605,0.826252 0.34785,3.775749 0.18177,6.554437 -0.35836,5.995605 0.49072,6.40409 2.54847,1.226049 2.71961,-6.843524 6.0361,-8.667743 16.073,-8.840875 l 8.92702,-0.153994 v 8.793933 8.793922 h -5.5 c -5.81625,0 -7.7946,2.255274 -2.25,2.564953 1.7875,0.09987 3.7,0.306105 4.25,0.458394 0.55,0.152277 1.58397,0.338733 2.29772,0.414336 0.94796,0.100461 1.21748,2.144862 1,7.585688 l -0.29772,7.448227 -4.70167,0.360872 -4.70167,0.360873 -0.29833,6.789422 -0.29833,6.789423 -16.71049,0.32653 -16.71049,0.32653 z m 13.71049,-1.191775 V 31.14305 l -5.5,-0.01668 -5.5,-0.01668 -0.27396,21.410831 c -0.15067,11.775946 -0.0432,22.127417 0.23882,23.003264 0.35983,1.117474 2.08201,1.484873 5.77396,1.231779 l 5.26118,-0.360669 z m 17.5,15.475636 v -7.746156 h 5 5 V 56.13575 50.773029 h -5 c -3.64962,0 -5,-0.456451 -5,-1.690103 0,-0.929563 -0.26408,-2.510219 -0.58684,-3.512583 -0.47813,-1.484842 0.49451,-1.889274 5.25,-2.182973 l 5.83684,-0.360494 v -5.958579 -5.958579 l -7.93551,0.297893 c -12.77656,0.479606 -14.4314,3.80789 -14.36875,28.899144 0.0204,8.19305 0.23634,15.298656 0.47974,15.790238 0.2434,0.491583 2.891,0.893787 5.88354,0.893787 h 5.44098 z m 14.1827,-9.332973 c 0.31339,-19.222734 0.35182,-19.516444 3.11899,-23.835568 6.60884,-10.315372 18.09341,-11.130899 25.3817,-1.802374 3.66635,4.692679 4.31661,8.805552 4.31661,27.30234 v 17.79816 h -7.5 -7.5 v -6.554437 c 0,-5.031689 -0.34848,-6.554437 -1.5,-6.554437 -1.15152,0 -1.5,1.522748 -1.5,6.554437 v 6.554437 h -7.5673 -7.5673 z m 12.3173,10.524689 v -5.958579 h 4 4 l 0.30408,6.319171 0.30409,6.319172 4.69591,-0.360593 4.69592,-0.360592 -0.0301,-16.715152 c -0.0272,-15.097335 -0.24265,-17.125052 -2.22637,-20.950138 -4.81629,-9.286946 -15.34825,-11.02119 -21.61519,-3.559273 l -3.12836,3.724862 -0.31961,19.116468 -0.3196,19.116458 4.8196,-0.366612 4.81961,-0.366613 z m 0.9518,-18.330416 c -1.04899,-1.250098 -0.33099,-5.927403 1.13202,-7.374373 2.25437,-2.229664 4.91618,0.08747 4.91618,4.279678 0,2.829598 -0.42843,3.363511 -2.7982,3.487127 -1.53901,0.08032 -3.00151,-0.09629 -3.25,-0.392432 z m 28.72076,26.055492 c 0.22488,-0.803967 31.9399,-1.464222 94.08334,-1.95866 86.55458,-0.688664 93.7441,-0.595651 93.7441,1.212793 0,1.80319 -7.46791,1.95866 -94.08333,1.95866 -63.36783,0 -93.97259,-0.395942 -93.74411,-1.212793 z M 19.968511,75.882494 C 9.9765628,75.508886 1.4565632,74.792065 1.0351773,74.289557 -1.1039892,71.738581 3.5824196,71.254808 23.123911,72.00936 c 18.878904,0.728968 21.021901,1.020008 21.323324,2.895918 0.269873,1.679555 -0.311791,2.043749 -2.988223,1.871003 -1.827828,-0.11798 -11.498554,-0.520178 -21.490501,-0.893787 z M 486.38569,70.25836 c -6.85298,-2.320762 4.44644,-2.802398 66,-2.813235 37.2625,-0.0066 79.5625,-0.354504 94,-0.773205 23.97795,-0.695382 26.25,-0.591203 26.25,1.203645 0,1.789718 -3.36599,1.96996 -37.75,2.021437 -20.7625,0.03108 -62.275,0.258451 -92.25,0.505257 -29.975,0.246807 -55.2875,0.182052 -56.25,-0.143899 z M 95.385688,68.953172 c -6.84202,-0.310586 -8.75,-0.775646 -8.75,-2.132769 0,-1.490908 3.207061,-1.629019 22.750002,-0.979722 12.5125,0.415717 22.90756,0.913788 23.10014,1.106825 0.19257,0.193036 0.0535,0.922927 -0.30902,1.621978 -0.63426,1.223001 -15.00091,1.372829 -36.791122,0.383688 z M 14.716649,66.318325 C 5.2730328,65.861701 1.1748737,65.228169 0.88331518,64.179835 0.40345458,62.454442 11.096733,62.21126 31.885688,63.474789 c 9.694662,0.589233 12.75,1.159227 12.75,2.378599 0,1.719808 -3.001792,1.766455 -29.919039,0.464937 z M 484.63569,59.710897 c 0,-1.57627 11.11111,-1.787573 94,-1.787573 52.5662,0 94,0.45657 94,1.035791 0,0.569688 -1.6875,1.368197 -3.75,1.774465 -2.0625,0.406268 -44.3625,0.74456 -94,0.751782 -79.56045,0.01192 -90.25,-0.198611 -90.25,-1.774465 z M 91.820528,59.425481 c -3.538249,-0.293162 -5.182622,-0.914224 -4.918708,-1.857753 0.295031,-1.054788 6.003722,-1.312091 22.31516,-1.005797 12.05529,0.226367 22.25621,0.656934 22.66871,0.956817 0.4125,0.299883 0.75,1.049866 0.75,1.666627 0,1.066383 -28.79776,1.235797 -40.815162,0.240106 z M 11.885688,57.033708 C 2.3065657,56.710014 0.63568778,56.366419 0.63568778,54.720254 c 0,-1.726987 1.45750302,-1.849996 13.65811222,-1.152687 7.511961,0.429339 17.411961,0.780609 22,0.780609 6.748345,0 8.341888,0.341486 8.341888,1.787574 0,1.876464 -2.093584,1.933869 -32.75,0.897958 z M 501.88569,52.234537 c -10.36838,-0.195989 -17.25,-0.790262 -17.25,-1.489645 0,-0.746812 27.48956,-1.164878 76.75,-1.167214 42.2125,-0.0024 84.5125,-0.354559 94,-0.783434 15.65796,-0.707831 17.25,-0.597502 17.25,1.195351 0,1.8149 -4.564,1.980334 -56.25,2.038966 -30.9375,0.03504 -65.475,0.169164 -76.75,0.297929 -11.275,0.128765 -28.2625,0.08735 -37.75,-0.092 z m -401,-1.195434 c -11.972976,-0.277086 -14.250002,-0.61974 -14.250002,-2.144325 0,-1.592323 2.663775,-1.72259 21.750002,-1.063678 23.00103,0.794076 24.75073,1.012279 23.74024,2.960746 -0.3762,0.725397 -3.98069,1.094388 -8.81338,0.902212 -4.49727,-0.17884 -14.58936,-0.473576 -22.42686,-0.654955 z M 18.635688,48.363797 C -0.82711732,47.377461 0.63568778,47.60521 0.63568778,45.561274 c 0,-1.331468 2.56365652,-1.547598 13.75000022,-1.159194 22.118455,0.76799 30.402063,1.653959 29.973798,3.205871 -0.468533,1.697837 -4.689036,1.821847 -25.723798,0.755846 z M 484.63569,41.84815 c 0,-1.558967 11.42184,-1.77624 94,-1.788134 82.90693,-0.01192 94,0.197479 94,1.774596 0,1.57701 -11.09812,1.788122 -94,1.788122 -82.58325,0 -94,-0.215534 -94,-1.774584 z M 94.385688,41.545216 c -5.561738,-0.291482 -7.75,-0.848311 -7.75,-1.972087 0,-1.261074 4.234052,-1.466406 21.750002,-1.054764 22.79367,0.535676 24.76647,0.760946 23.75437,2.712524 -0.59118,1.139936 -19.06589,1.293739 -37.754372,0.314327 z M 14.216523,38.910499 C 5.1744208,38.455228 1.1730658,37.812977 0.88318978,36.770368 0.56801078,35.63676 3.200352,35.280723 11.896792,35.280723 c 19.101394,0 32.738896,1.316477 32.738896,3.160395 0,1.722303 -4.236676,1.787681 -30.419165,0.469381 z M 681.13569,26.322667 c 8.36466,-8.186909 27.66304,-15.24798 50.63794,-18.5278795 20.35494,-2.9058679 51.73418,4.4888595 68.38012,16.1142505 6.85033,4.784214 4.88298,4.832991 -2.65061,0.06566 C 767.00318,4.6742082 718.68636,4.3212458 688.1605,23.175954 c -8.35416,5.160057 -9.69605,5.761135 -7.02481,3.146666 z m 41.5,-3.129064 c 4.50897,-1.507902 34.4211,-1.524574 39,-0.02169 2.59913,0.853054 1.44087,0.94888 -4.5,0.372292 -10.19639,-0.989601 -18.79745,-0.983261 -29.5,0.02169 -6.31964,0.593439 -7.60221,0.497946 -5,-0.372292 z m 62.5,0.169962 c -1.31874,-0.675321 -1.48906,-1.046505 -0.5,-1.089705 0.825,-0.03599 2.175,0.454342 3,1.089705 1.82797,1.40781 0.24909,1.40781 -2.5,0 z m -81.5,-2.383431 c 1.375,-0.524772 3.4,-0.954136 4.5,-0.954136 1.58367,0 1.47958,0.198624 -0.5,0.954136 -1.375,0.524784 -3.4,0.954135 -4.5,0.954135 -1.58367,0 -1.47958,-0.198611 0.5,-0.954135 z m 56.75,0.370242 c -2.89667,-0.902105 -1.96678,-2.854243 1,-2.099327 2.59044,0.65915 2.64119,0.594655 0.87457,-1.111751 -3.36212,-3.247545 -0.56882,-6.772783 3.7879,-4.780437 2.31802,1.060043 0.96106,2.728409 -1.66347,2.045223 -2.23906,-0.582857 -2.23833,-0.575099 0.16425,1.753395 l 2.41326,2.338838 -2.09751,1.337772 c -1.15364,0.735765 -2.2396,1.275553 -2.41326,1.199522 -0.17366,-0.07603 -1.10324,-0.383483 -2.06574,-0.683235 z m 20.0625,0.0071 c 0.72187,-0.344251 1.58438,-0.301921 1.91667,0.09403 0.33229,0.395995 -0.25834,0.677657 -1.3125,0.625913 -1.16495,-0.0572 -1.4019,-0.339568 -0.60417,-0.719999 z m -62.3125,-3.952778 c -2.97619,-3.702029 -2.78316,-4.477384 0.58058,-2.332033 1.50876,0.962263 2.08287,0.827647 2.54125,-0.595858 0.32568,-1.011433 1.04215,-1.838972 1.59215,-1.838972 0.56781,0 0.67996,0.90133 0.25949,2.085502 -0.40728,1.147027 -0.70839,3.023979 -0.66914,4.171006 0.10204,2.981673 -1.0226,2.592458 -4.30433,-1.489645 z m 54.5,2.383432 c -1.97958,-0.755512 -2.08367,-0.954136 -0.5,-0.954136 1.1,0 3.125,0.429364 4.5,0.954136 1.97958,0.755524 2.08367,0.954135 0.5,0.954135 -1.1,0 -3.125,-0.429351 -4.5,-0.954135 z m -61.1875,-0.814073 c 0.72187,-0.344251 1.58438,-0.30191 1.91667,0.09403 0.33229,0.395995 -0.25834,0.677657 -1.3125,0.625913 -1.16495,-0.0572 -1.4019,-0.339568 -0.60417,-0.719999 z m 16.1875,-2.633573 c 0,-3.347542 1.44803,-4.894365 4.58179,-4.894365 2.3709,0 1.58146,2.374815 -0.83179,2.502222 -2.15857,0.113928 -2.14841,0.157568 0.25,1.072925 1.66667,0.636091 1.91667,0.993736 0.75,1.072926 -2.51959,0.171035 -2.15643,2.243167 0.5,2.852908 1.39283,0.319702 0.82138,0.57828 -1.5,0.678742 -3.50056,0.151503 -3.75,-0.06709 -3.75,-3.285358 z m 10,1.938016 c 0,-0.990805 0.89385,-3.067489 1.98634,-4.614848 l 1.98634,-2.813391 1.99143,2.97929 c 2.87289,4.29803 2.68615,6.260559 -0.4345,4.566106 -1.88895,-1.025662 -2.83039,-0.98531 -4,0.171476 -1.25809,1.244295 -1.52961,1.193063 -1.52961,-0.288633 z m 5,-2.591041 c 0,-0.289038 -0.45,-0.856962 -1,-1.26205 -0.55,-0.405089 -1,-0.168593 -1,0.525534 0,0.694127 0.45,1.262039 1,1.262039 0.55,0 1,-0.236484 1,-0.525523 z m 6.18664,0.227594 c 0.25361,-3.134617 0.79002,-3.931935 2.81336,-4.18179 3.40037,-0.419889 5.88097,1.523108 4.31979,3.383603 -0.63993,0.762603 -0.92552,2.125616 -0.63466,3.028912 0.65973,2.048822 -0.84526,2.136878 -2.61013,0.152707 -1.06,-1.191716 -1.41667,-1.191716 -1.78333,0 -0.93301,3.032404 -2.40808,1.36225 -2.10503,-2.383432 z m 5.31336,-0.893787 c 0.33992,-0.655443 -0.11008,-1.191715 -1,-1.191715 -0.88992,0 -1.33992,0.536272 -1,1.191715 0.33992,0.655444 0.78992,1.191716 1,1.191716 0.21008,0 0.66008,-0.536272 1,-1.191716 z"
       id="path1" />
  </g>
</svg>
